<svg width="70" height="70" viewBox="0 0 70 70" fill="none" xmlns="http://www.w3.org/2000/svg">
<path d="M70 35C70 54.33 54.33 70 35 70C15.67 70 0 54.33 0 35C0 15.67 15.67 0 35 0C54.33 0 70 15.67 70 35Z" fill="#B1DEE3"/>
<path d="M8.782 20.688H9.862V26.088H16.504V20.688H17.584V33H16.504V27.096H9.862V33H8.782V20.688ZM21.2114 28.878C21.2234 29.718 21.4274 30.486 21.8234 31.182C22.2194 31.878 23.0114 32.226 24.1994 32.226C24.7154 32.226 25.1894 32.16 25.6214 32.028C26.0654 31.896 26.5454 31.68 27.0614 31.38L27.5294 32.136C27.0494 32.46 26.5154 32.718 25.9274 32.91C25.3394 33.102 24.7394 33.198 24.1274 33.198C22.8674 33.198 21.8834 32.796 21.1754 31.992C20.4794 31.176 20.1314 30.108 20.1314 28.788C20.1314 27.936 20.2874 27.138 20.5994 26.394C20.9114 25.638 21.3734 25.026 21.9854 24.558C22.5974 24.09 23.3174 23.856 24.1454 23.856C24.8414 23.856 25.4714 24.024 26.0354 24.36C26.6114 24.684 27.0614 25.134 27.3854 25.71C27.7214 26.274 27.8894 26.904 27.8894 27.6C27.8894 27.792 27.8834 27.966 27.8714 28.122C27.8594 28.266 27.8474 28.392 27.8354 28.5L27.7994 28.878H21.2114ZM26.7914 27.906C26.8034 27.822 26.8094 27.702 26.8094 27.546C26.8094 27.042 26.6894 26.586 26.4494 26.178C26.2094 25.758 25.8854 25.428 25.4774 25.188C25.0694 24.948 24.6194 24.828 24.1274 24.828C23.3954 24.828 22.7654 25.098 22.2374 25.638C21.7214 26.166 21.3974 26.922 21.2654 27.906H26.7914ZM30.0611 19.932H31.1411V33H30.0611V19.932ZM34.0162 19.932H35.0962V33H34.0162V19.932ZM37.9713 23.982H39.0513V33H37.9713V23.982ZM38.4753 22.83C38.2713 22.83 38.0913 22.758 37.9353 22.614C37.7913 22.458 37.7192 22.278 37.7192 22.074C37.7192 21.858 37.7913 21.678 37.9353 21.534C38.0913 21.378 38.2713 21.3 38.4753 21.3C38.6913 21.3 38.8713 21.378 39.0153 21.534C39.1713 21.678 39.2493 21.858 39.2493 22.074C39.2493 22.278 39.1713 22.458 39.0153 22.614C38.8713 22.758 38.6913 22.83 38.4753 22.83ZM45.7063 33.18C44.8543 33.18 44.0923 32.982 43.4203 32.586C42.7603 32.19 42.2443 31.638 41.8723 30.93C41.5003 30.222 41.3143 29.418 41.3143 28.518C41.3143 27.618 41.5003 26.814 41.8723 26.106C42.2563 25.386 42.7783 24.828 43.4383 24.432C44.1103 24.024 44.8723 23.82 45.7243 23.82C46.5643 23.82 47.3143 24.024 47.9743 24.432C48.6463 24.828 49.1683 25.38 49.5403 26.088C49.9243 26.796 50.1163 27.6 50.1163 28.5C50.1163 29.4 49.9243 30.204 49.5403 30.912C49.1683 31.62 48.6463 32.178 47.9743 32.586C47.3143 32.982 46.5583 33.18 45.7063 33.18ZM45.7243 32.208C46.7203 32.208 47.5183 31.866 48.1183 31.182C48.7303 30.498 49.0363 29.604 49.0363 28.5C49.0363 27.768 48.8983 27.126 48.6223 26.574C48.3463 26.01 47.9563 25.572 47.4523 25.26C46.9483 24.948 46.3723 24.792 45.7243 24.792C45.0643 24.792 44.4823 24.948 43.9783 25.26C43.4743 25.572 43.0843 26.016 42.8083 26.592C42.5323 27.156 42.3943 27.798 42.3943 28.518C42.3943 29.238 42.5323 29.88 42.8083 30.444C43.0843 30.996 43.4743 31.428 43.9783 31.74C44.4823 32.052 45.0643 32.208 45.7243 32.208ZM54.6935 33.216C53.4815 33.216 52.3535 32.748 51.3095 31.812L51.9035 31.092C52.3595 31.464 52.8095 31.752 53.2535 31.956C53.7095 32.148 54.1955 32.244 54.7115 32.244C55.3595 32.244 55.8635 32.094 56.2235 31.794C56.5955 31.482 56.7815 31.062 56.7815 30.534C56.7815 30.198 56.6975 29.928 56.5295 29.724C56.3735 29.508 56.1575 29.334 55.8815 29.202C55.6175 29.07 55.1375 28.86 54.4415 28.572C53.8055 28.308 53.3135 28.08 52.9655 27.888C52.6175 27.696 52.3415 27.462 52.1375 27.186C51.9335 26.898 51.8315 26.538 51.8315 26.106C51.8315 25.398 52.0835 24.834 52.5875 24.414C53.0915 23.982 53.7635 23.766 54.6035 23.766C55.0355 23.766 55.4615 23.826 55.8815 23.946C56.3135 24.066 56.6795 24.24 56.9795 24.468L56.5295 25.242C55.9775 24.906 55.3535 24.738 54.6575 24.738C54.1055 24.738 53.6795 24.846 53.3795 25.062C53.0795 25.278 52.9295 25.584 52.9295 25.98C52.9295 26.28 53.0075 26.526 53.1635 26.718C53.3315 26.91 53.5415 27.072 53.7935 27.204C54.0575 27.324 54.4895 27.504 55.0895 27.744C55.7735 28.02 56.3015 28.272 56.6735 28.5C57.0575 28.716 57.3515 28.986 57.5555 29.31C57.7715 29.622 57.8795 30.012 57.8795 30.48C57.8795 31.308 57.5855 31.974 56.9975 32.478C56.4215 32.97 55.6535 33.216 54.6935 33.216ZM17.674 45.874C17.434 46.042 17.17 46.126 16.882 46.126C16.534 46.126 16.258 46.06 16.054 45.928C15.85 45.784 15.676 45.616 15.532 45.424L13.39 42.526C12.97 41.962 12.598 41.584 12.274 41.392C11.962 41.188 11.53 41.068 10.978 41.032V40.024H12.544C13.324 40.024 13.948 39.79 14.416 39.322C14.884 38.854 15.118 38.218 15.118 37.414C15.118 36.622 14.896 35.974 14.452 35.47C14.008 34.954 13.438 34.696 12.742 34.696H9.862V46H8.782V33.688H12.814C13.462 33.688 14.038 33.85 14.542 34.174C15.058 34.486 15.46 34.918 15.748 35.47C16.048 36.022 16.198 36.634 16.198 37.306C16.198 37.942 16.072 38.506 15.82 38.998C15.568 39.49 15.268 39.88 14.92 40.168C14.572 40.456 14.248 40.63 13.948 40.69C13.744 40.726 13.504 40.744 13.228 40.744C12.964 40.732 12.826 40.726 12.814 40.726C13.198 40.81 13.528 41.032 13.804 41.392L14.524 42.382C14.74 42.67 15.064 43.114 15.496 43.714C15.94 44.314 16.228 44.686 16.36 44.83C16.444 44.926 16.516 44.998 16.576 45.046C16.648 45.082 16.744 45.1 16.864 45.1C17.02 45.1 17.14 45.064 17.224 44.992L17.674 45.874ZM18.9966 41.878C19.0086 42.718 19.2126 43.486 19.6086 44.182C20.0046 44.878 20.7966 45.226 21.9846 45.226C22.5006 45.226 22.9746 45.16 23.4066 45.028C23.8506 44.896 24.3306 44.68 24.8466 44.38L25.3146 45.136C24.8346 45.46 24.3006 45.718 23.7126 45.91C23.1246 46.102 22.5246 46.198 21.9126 46.198C20.6526 46.198 19.6686 45.796 18.9606 44.992C18.2646 44.176 17.9166 43.108 17.9166 41.788C17.9166 40.936 18.0726 40.138 18.3846 39.394C18.6966 38.638 19.1586 38.026 19.7706 37.558C20.3826 37.09 21.1026 36.856 21.9306 36.856C22.6266 36.856 23.2566 37.024 23.8206 37.36C24.3966 37.684 24.8466 38.134 25.1706 38.71C25.5066 39.274 25.6746 39.904 25.6746 40.6C25.6746 40.792 25.6686 40.966 25.6566 41.122C25.6446 41.266 25.6326 41.392 25.6206 41.5L25.5846 41.878H18.9966ZM24.5766 40.906C24.5886 40.822 24.5946 40.702 24.5946 40.546C24.5946 40.042 24.4746 39.586 24.2346 39.178C23.9946 38.758 23.6706 38.428 23.2626 38.188C22.8546 37.948 22.4046 37.828 21.9126 37.828C21.1806 37.828 20.5506 38.098 20.0226 38.638C19.5066 39.166 19.1826 39.922 19.0506 40.906H24.5766ZM30.2763 46.252C29.4123 46.252 28.7643 46.024 28.3323 45.568C27.9123 45.112 27.7023 44.392 27.7023 43.408V34.75H28.7822V37H31.6083V37.972H28.7822V43.408C28.7822 44.164 28.9202 44.668 29.1963 44.92C29.4843 45.16 29.8383 45.28 30.2583 45.28C30.5103 45.28 30.7203 45.268 30.8883 45.244C31.0563 45.208 31.2423 45.13 31.4463 45.01L31.9323 45.838C31.4883 46.114 30.9363 46.252 30.2763 46.252ZM37.4768 36.82C37.8368 36.82 38.1968 36.874 38.5568 36.982V37.99C38.2088 37.906 37.8608 37.864 37.5128 37.864C36.9008 37.864 36.4028 38.014 36.0188 38.314C35.6348 38.614 35.2928 39.04 34.9928 39.592V46H33.9128V39.7C33.9128 38.752 33.6608 38.056 33.1568 37.612L33.8768 36.892C34.0928 37.024 34.2968 37.222 34.4888 37.486C34.6808 37.75 34.8188 38.044 34.9028 38.368C35.2388 37.816 35.5748 37.438 35.9108 37.234C36.3308 36.958 36.8528 36.82 37.4768 36.82ZM40.4946 41.878C40.5066 42.718 40.7106 43.486 41.1066 44.182C41.5026 44.878 42.2946 45.226 43.4826 45.226C43.9986 45.226 44.4726 45.16 44.9046 45.028C45.3486 44.896 45.8286 44.68 46.3446 44.38L46.8126 45.136C46.3326 45.46 45.7986 45.718 45.2106 45.91C44.6226 46.102 44.0226 46.198 43.4106 46.198C42.1506 46.198 41.1666 45.796 40.4586 44.992C39.7626 44.176 39.4146 43.108 39.4146 41.788C39.4146 40.936 39.5706 40.138 39.8826 39.394C40.1946 38.638 40.6566 38.026 41.2686 37.558C41.8806 37.09 42.6006 36.856 43.4286 36.856C44.1246 36.856 44.7546 37.024 45.3186 37.36C45.8946 37.684 46.3446 38.134 46.6686 38.71C47.0046 39.274 47.1726 39.904 47.1726 40.6C47.1726 40.792 47.1666 40.966 47.1546 41.122C47.1426 41.266 47.1306 41.392 47.1186 41.5L47.0826 41.878H40.4946ZM46.0746 40.906C46.0866 40.822 46.0926 40.702 46.0926 40.546C46.0926 40.042 45.9726 39.586 45.7326 39.178C45.4926 38.758 45.1686 38.428 44.7606 38.188C44.3526 37.948 43.9026 37.828 43.4106 37.828C42.6786 37.828 42.0486 38.098 41.5206 38.638C41.0046 39.166 40.6806 39.922 40.5486 40.906H46.0746ZM55.4103 46.144C55.1823 45.964 54.9963 45.766 54.8523 45.55C54.7203 45.334 54.5943 45.052 54.4743 44.704C54.2343 45.172 53.8743 45.538 53.3943 45.802C52.9263 46.054 52.3563 46.18 51.6843 46.18C50.7363 46.18 49.9743 45.928 49.3983 45.424C48.8343 44.92 48.5523 44.236 48.5523 43.372C48.5523 42.46 48.8703 41.752 49.5063 41.248C50.1543 40.744 51.0663 40.492 52.2423 40.492H54.3303V39.844C54.3303 39.124 54.1743 38.59 53.8623 38.242C53.5503 37.894 53.0703 37.72 52.4223 37.72C51.9423 37.72 51.4503 37.81 50.9463 37.99C50.4423 38.158 49.9923 38.392 49.5963 38.692L49.1103 37.9C49.5543 37.528 50.0643 37.246 50.6403 37.054C51.2283 36.85 51.8283 36.748 52.4403 36.748C53.4123 36.748 54.1503 37 54.6543 37.504C55.1583 37.996 55.4103 38.71 55.4103 39.646V43.408C55.4103 44.332 55.6443 45.046 56.1123 45.55L55.4103 46.144ZM51.7023 45.208C52.5063 45.208 53.1423 44.986 53.6103 44.542C54.0903 44.098 54.3303 43.522 54.3303 42.814V41.464H52.4943C51.4743 41.464 50.7423 41.614 50.2983 41.914C49.8543 42.202 49.6323 42.682 49.6323 43.354C49.6323 43.954 49.8123 44.416 50.1723 44.74C50.5323 45.052 51.0423 45.208 51.7023 45.208ZM60.6864 46.252C59.8224 46.252 59.1744 46.024 58.7424 45.568C58.3224 45.112 58.1124 44.392 58.1124 43.408V34.75H59.1924V37H62.0184V37.972H59.1924V43.408C59.1924 44.164 59.3304 44.668 59.6064 44.92C59.8944 45.16 60.2484 45.28 60.6684 45.28C60.9204 45.28 61.1304 45.268 61.2984 45.244C61.4664 45.208 61.6524 45.13 61.8564 45.01L62.3424 45.838C61.8984 46.114 61.3464 46.252 60.6864 46.252Z" fill="black"/>
</svg>
